#!OML:ASF X:\für Bonn\!DataBase\2005_08_12_Daniel\c3d\Daniel.ASF
:FULLY-SPECIFIED
:DEGREES
47
root 3.03132 16.3953 3.05855 -1.34371 162.71 -346.856
lowerback 15.6435 -1.35405 7.46169
upperback 2.9547 -0.0646075 1.41293
thorax -5.64217 0.0254161 -2.72312
lowerneck -3.6318 11.721 4.34996
upperneck -4.58556 15.8362 -14.3065
head 0.758059 8.09228 -4.4843
rclavicle -1.66979e-014 -5.56597e-015
rhumerus -48.8791 3.23112 -93.0296
rradius 90.2379
rwrist 4.20083
rhand -30.0712 33.524
rfingers 7.12502
rthumb -3.38621 3.57117
lclavicle -1.66979e-014 -5.56597e-015
lhumerus -73.0079 -4.88316 95.5419
lradius 93.3952
lwrist 14.879
lhand -14.4207 -12.8567
lfingers 7.12502
lthumb 11.7235 16.7953
rfemur 1.11896 0.97847 27.412
rtibia 39.156
rfoot -29.292 4.05773
rtoes -15.2512
lfemur -26.4964 9.50407 -16.5486
ltibia 99.7153
lfoot -5.78559 -2.44092
ltoes 1.14456
48
root 3.08018 16.4868 2.74433 -1.55311 162.916 -347.366
lowerback 15.4119 -0.92801 6.94987
upperback 2.91384 0.356439 1.18074
thorax -5.51683 0.231137 -2.7654
lowerneck -3.76107 11.6179 4.35984
upperneck -4.05676 15.7339 -14.1283
head 0.910193 8.01028 -4.41271
rclavicle -4.6118e-014 1.43125e-014
rhumerus -48.53 4.55311 -94.3113
rradius 91.4248
rwrist 5.05021
rhand -30.3883 34.2535
rfingers 7.12502
rthumb -3.69241 4.30571
lclavicle -4.6118e-014 1.43125e-014
lhumerus -74.2653 -5.90045 96.1615
lradius 94.4867
lwrist 15.6057
lhand -13.6404 -13.3055
lfingers 7.12502
lthumb 12.4759 16.3021
rfemur 2.94972 1.50943 27.0177
rtibia 37.8355
rfoot -27.9035 3.01863
rtoes -16.1783
lfemur -27.6845 9.14669 -17.5306
ltibia 98.328
lfoot -6.43581 -1.90581
ltoes 1.03838
49
root 3.12944 16.5908 2.43279 -1.71697 163.138 -347.907
lowerback 15.2247 -0.503484 6.32405
upperback 2.82278 0.763821 0.949728
thorax -5.47529 0.427292 -2.7359
lowerneck -4.10006 11.5468 4.32069
upperneck -3.32657 15.6881 -13.8528
head 1.14831 7.94104 -4.28295
rclavicle -3.19049e-014 2.38542e-015
rhumerus -48.2735 6.09763 -95.4945
rradius 92.5737
rwrist 5.63238
rhand -30.4508 34.6755
rfingers 7.12502
rthumb -3.75282 4.72875
lclavicle -3.19049e-014 2.38542e-015
lhumerus -75.5055 -6.64758 96.6623
lradius 95.4948
lwrist 16.1902
lhand -12.8644 -13.9165
lfingers 7.12502
lthumb 13.2239 15.644
rfemur 4.60868 2.06542 26.6028
rtibia 36.5601
rfoot -25.9906 2.05303
rtoes -17.0406
lfemur -28.8047 8.76426 -18.5123
ltibia 96.6208
lfoot -7.02275 -1.44551
ltoes 0.863316
50
root 3.1772 16.7042 2.11494 -1.78298 163.383 -348.392
lowerback 14.8827 -0.0831594 5.73606
upperback 2.73798 1.16622 0.747944
thorax -5.34742 0.624242 -2.68973
lowerneck -4.33724 11.4442 4.27132
upperneck -2.69831 15.6023 -13.2268
head 1.42853 7.87233 -4.52397
rclavicle -6.36111e-015 0
rhumerus -48.0552 7.69913 -96.5787
rradius 93.7282
rwrist 5.94178
rhand -30.1352 34.8978
rfingers 7.12502
rthumb -3.44801 4.94599
lclavicle -6.36111e-015 0
lhumerus -76.7184 -7.20938 97.119
lradius 96.3891
lwrist 16.4921
lhand -12.1153 -14.7259
lfingers 7.12502
lthumb 13.9458 14.7864
rfemur 6.03752 2.25693 26.0389
rtibia 35.3644
rfoot -23.629 1.52749
rtoes -17.9271
lfemur -29.7916 8.39982 -19.4014
ltibia 94.5815
lfoot -7.48169 -1.04677
ltoes 0.621143
51
root 3.22549 16.8285 1.79278 -1.75433 163.67 -348.86
lowerback 14.4706 0.311688 5.09876
upperback 2.61634 1.52793 0.563801
thorax -5.22962 0.800272 -2.58375
lowerneck -4.55574 11.3601 4.19023
upperneck -2.14089 15.5203 -12.9304
head 1.60698 7.80084 -4.38253
rclavicle -3.83654e-014 -2.70347e-014
rhumerus -47.9723 9.46565 -97.6121
rradius 95.0742
rwrist 5.89744
rhand -29.5611 34.5951
rfingers 7.12502
rthumb -2.89359 4.63501
lclavicle -3.83654e-014 -2.70347e-014
lhumerus -77.7619 -7.6091 97.571
lradius 97.2271
lwrist 16.6824
lhand -11.3818 -15.3166
lfingers 7.12502
lthumb 14.6526 14.1457
rfemur 7.25557 2.44532 25.4976
rtibia 34.222
rfoot -20.7895 0.91586
rtoes -18.9237
lfemur -30.6682 7.99268 -20.2298
ltibia 92.252
lfoot -7.85004 -0.708131
ltoes 0.219946
52
root 3.27126 16.9595 1.46617 -1.62819 163.975 -349.275
lowerback 13.9725 0.688478 4.5285
upperback 2.47264 1.87463 0.347489
thorax -5.09031 0.96748 -2.54029
lowerneck -4.8273 11.2964 4.33201
upperneck -1.49169 15.458 -13.0726
head 1.72017 7.71797 -3.96786
rclavicle -3.45885e-014 7.95139e-015
rhumerus -48.1242 11.2327 -98.6698
rradius 96.4972
rwrist 5.61703
rhand -28.893 34.0151
rfingers 7.12502
rthumb -2.24835 4.04717
lclavicle -3.45885e-014 7.95139e-015
lhumerus -78.6588 -8.03195 97.959
lradius 98.0994
lwrist 16.8275
lhand -10.8182 -15.6328
lfingers 7.12502
lthumb 15.1957 13.7892
rfemur 8.26769 2.58242 24.9661
rtibia 33.1708
rfoot -17.4641 0.224982
rtoes -19.9308
lfemur -31.3973 7.62356 -20.9806
ltibia 89.6574
lfoot -8.08337 -0.469989
ltoes -0.89349
53
root 3.31631 17.0925 1.13567 -1.44345 164.29 -349.643
lowerback 13.4189 1.03295 3.8971
upperback 2.31921 2.18043 0.208555
thorax -4.94214 1.11702 -2.36756
lowerneck -5.0235 11.2499 4.37942
upperneck -0.93872 15.4238 -12.8471
head 1.89682 7.67081 -3.88213
rclavicle 2.98177e-014 2.70347e-014
rhumerus -48.6393 13.1803 -99.6456
rradius 97.8843
rwrist 5.10705
rhand -28.2701 33.4445
rfingers 7.12502
rthumb -1.64677 3.47107
lclavicle 2.98177e-014 2.70347e-014
lhumerus -79.4126 -8.2646 98.3526
lradius 98.913
lwrist 16.9704
lhand -10.1953 -15.5942
lfingers 7.12502
lthumb 15.7956 13.7814
rfemur 9.14219 2.79568 24.5122
rtibia 32.1927
rfoot -13.9707 -0.506861
rtoes -20.8272
lfemur -31.9826 7.29716 -21.6442
ltibia 86.8605
lfoot -8.16131 -0.300712
ltoes -1.905
54
root 3.36092 17.2277 0.800726 -1.2168 164.647 -349.935
lowerback 12.8722 1.33877 3.2948
upperback 2.10962 2.44852 0.105575
thorax -4.86348 1.24489 -2.16489
lowerneck -5.06099 11.2226 4.47043
upperneck -0.412611 15.4177 -12.6773
head 2.05063 7.64469 -3.82739
rclavicle -1.98785e-015 -2.22639e-014
rhumerus -49.3974 15.1162 -100.607
rradius 99.208
rwrist 4.57822
rhand -27.7584 32.8627
rfingers 7.12502
rthumb -1.15254 2.88604
lclavicle -1.98785e-015 -2.22639e-014
lhumerus -80.2137 -8.38413 98.727
lradius 99.8014
lwrist 17.1828
lhand -9.63787 -15.3752
lfingers 7.12502
lthumb 16.3323 13.9571
rfemur 9.91478 2.97295 24.1356
rtibia 31.3348
rfoot -10.3289 -1.32515
rtoes -20.6885
lfemur -32.4087 7.00345 -22.1605
ltibia 83.8961
lfoot -8.15594 -0.329517
ltoes -3.1172
55
root 3.40221 17.36 0.461147 -0.953734 164.996 -350.076
lowerback 12.3065 1.59511 2.8368
upperback 1.92275 2.68277 0.0479765
thorax -4.75136 1.35739 -1.98636
lowerneck -5.2476 11.2122 4.396
upperneck 0.185784 15.4472 -12.4255
head 2.23362 7.63186 -3.7123
rclavicle -1.37161e-014 1.59028e-015
rhumerus -50.4094 16.9991 -101.584
rradius 100.611
rwrist 4.15528
rhand -27.403 32.4478
rfingers 7.12502
rthumb -0.809315 2.4696
lclavicle -1.37161e-014 1.59028e-015
lhumerus -80.7702 -8.44707 99.0395
lradius 100.604
lwrist 17.3377
lhand -9.08398 -14.9495
lfingers 7.12502
lthumb 16.8656 14.3381
rfemur 10.6029 3.10087 23.8906
rtibia 30.6137
rfoot -6.45741 -2.1707
rtoes -19.5235
lfemur -32.7045 6.8018 -22.5356
ltibia 80.8194
lfoot -8.1218 -0.378479
ltoes -4.60688
56
root 3.44347 17.4834 0.119444 -0.700599 165.374 -350.176
lowerback 11.7758 1.80997 2.3722
upperback 1.69038 2.8688 0.0210318
thorax -4.71262 1.44452 -1.76501
lowerneck -5.23122 11.2002 4.14335
upperneck 0.607415 15.4662 -11.7436
head 2.51754 7.65019 -3.85973
rclavicle 3.1408e-014 4.77083e-015
rhumerus -51.5983 18.7979 -102.599
rradius 101.999
rwrist 3.86291
rhand -27.1028 32.2968
rfingers 7.12502
rthumb -0.519401 2.31766
lclavicle 3.1408e-014 4.77083e-015
lhumerus -81.2609 -8.42332 99.268
lradius 101.329
lwrist 17.536
lhand -8.52992 -14.4228
lfingers 7.12502
lthumb 17.3989 14.8185
rfemur 11.2091 3.31075 23.7552
rtibia 30.0708
rfoot -2.81066 -3.14334
rtoes -17.8084
lfemur -32.8503 6.54413 -22.798
ltibia 77.6347
lfoot -8.1359 -0.465976
ltoes -5.87717
57
root 3.48039 17.5917 -0.224607 -0.512314 165.78 -350.216
lowerback 11.3367 1.96994 2.0246
upperback 1.50041 3.009 -0.00233179
thorax -4.67816 1.51055 -1.60041
lowerneck -5.30991 11.1916 3.68093
upperneck 1.06687 15.5025 -11.3266
head 2.60263 7.65441 -3.6217
rclavicle -2.5842e-014 6.04305e-014
rhumerus -52.7347 20.3844 -103.629
rradius 103.177
rwrist 3.86443
rhand -26.8222 32.442
rfingers 7.12502
rthumb -0.248344 2.46239
lclavicle -2.5842e-014 6.04305e-014
lhumerus -81.5498 -8.35887 99.3763
lradius 101.92
lwrist 17.6887
lhand -8.14451 -14.0548
lfingers 7.12502
lthumb 17.7698 15.1533
rfemur 11.7999 3.37438 23.6443
rtibia 29.7456
rfoot 0.410939 -3.98531
rtoes -15.863
lfemur -32.7778 6.29876 -22.9931
ltibia 74.3268
lfoot -8.23494 -0.552441
ltoes -6.68597
58
root 3.5118 17.6922 -0.573309 -0.380379 166.193 -350.198
lowerback 10.9586 2.11511 1.8016
upperback 1.35537 3.15269 -0.0369152
thorax -4.62411 1.57918 -1.51848
lowerneck -5.37252 11.1649 3.37371
upperneck 1.48487 15.5119 -11.0342
head 2.69668 7.64703 -3.45753
rclavicle 7.30534e-014 -1.74931e-014
rhumerus -53.8222 21.7232 -104.557
rradius 104.091
rwrist 4.06812
rhand -26.5208 33.0183
rfingers 7.12502
rthumb 0.0426917 3.0386
lclavicle 7.30534e-014 -1.74931e-014
lhumerus -81.7332 -8.29858 99.406
lradius 102.485
lwrist 17.8947
lhand -7.80131 -13.8696
lfingers 7.12502
lthumb 18.1 15.3082
rfemur 12.3044 3.15339 23.4377
rtibia 29.6836
rfoot 3.18894 -4.53607
rtoes -14.3651
lfemur -32.5694 6.05929 -23.1161
ltibia 70.895
lfoot -8.32958 -0.694952
ltoes -6.48447
59
root 3.5393 17.7787 -0.920793 -0.283362 166.612 -350.131
lowerback 10.6614 2.21093 1.66553
upperback 1.2152 3.24698 -0.0542715
thorax -4.60846 1.62243 -1.46323
lowerneck -5.39376 11.1814 3.1139
upperneck 1.8621 15.5759 -10.7754
head 2.78179 7.66934 -3.31294
rclavicle -2.83268e-014 3.65764e-014
rhumerus -54.9476 23.0076 -105.344
rradius 104.767
rwrist 4.15336
rhand -26.1641 33.9177
rfingers 7.12502
rthumb 0.387242 3.93827
lclavicle -2.83268e-014 3.65764e-014
lhumerus -81.8404 -8.08736 99.347
lradius 103.07
lwrist 18.0666
lhand -7.53879 -13.7704
lfingers 7.12502
lthumb 18.3526 15.3838
rfemur 12.6962 2.60365 23.1305
rtibia 29.8753
rfoot 5.5944 -4.73595
rtoes -13.6736
lfemur -32.2723 5.86066 -23.1916
ltibia 67.3858
lfoot -8.47215 -0.891142
ltoes -6.38642
